<mxfile host="app.diagrams.net" agent="Mozilla/5.0 (X11; Linux x86_64) AppleWebKit/537.36 (KHTML, like Gecko) Chrome/132.0.0.0 Safari/537.36" version="26.0.10">
  <diagram name="Page-1" id="4uYNY1ddm91LXE7vqArr">
    <mxGraphModel dx="-1093" dy="765" grid="1" gridSize="10" guides="1" tooltips="1" connect="1" arrows="1" fold="1" page="1" pageScale="1" pageWidth="827" pageHeight="1169" math="0" shadow="0">
      <root>
        <mxCell id="0" />
        <mxCell id="1" parent="0" />
        <mxCell id="ULj_5l2b-d4UT1FlwqZ8-1" value="" style="rounded=0;whiteSpace=wrap;html=1;fontSize=20;fillColor=#fff2cc;strokeColor=#d6b656;" parent="1" vertex="1">
          <mxGeometry x="2780" y="895" width="180" height="175" as="geometry" />
        </mxCell>
        <mxCell id="ULj_5l2b-d4UT1FlwqZ8-2" value="" style="rounded=0;whiteSpace=wrap;html=1;" parent="1" vertex="1">
          <mxGeometry x="2780" y="940" width="180" height="106" as="geometry" />
        </mxCell>
        <mxCell id="ULj_5l2b-d4UT1FlwqZ8-3" value="" style="rounded=0;whiteSpace=wrap;html=1;fontSize=20;fillColor=#fff2cc;strokeColor=#d6b656;" parent="1" vertex="1">
          <mxGeometry x="3360" y="890" width="180" height="180" as="geometry" />
        </mxCell>
        <mxCell id="ULj_5l2b-d4UT1FlwqZ8-4" value="" style="rounded=0;whiteSpace=wrap;html=1;" parent="1" vertex="1">
          <mxGeometry x="3360" y="934" width="180" height="106" as="geometry" />
        </mxCell>
        <mxCell id="ULj_5l2b-d4UT1FlwqZ8-5" value="" style="endArrow=classic;html=1;rounded=0;entryX=0.008;entryY=0.376;entryDx=0;entryDy=0;entryPerimeter=0;strokeWidth=2;" parent="1" edge="1">
          <mxGeometry width="50" height="50" relative="1" as="geometry">
            <mxPoint x="3361.44" y="987.1800000000001" as="sourcePoint" />
            <mxPoint x="2960" y="986.5" as="targetPoint" />
          </mxGeometry>
        </mxCell>
        <mxCell id="ULj_5l2b-d4UT1FlwqZ8-7" value="&lt;font style=&quot;font-size: 20px;&quot;&gt;OrbitaStatus PDOs&lt;/font&gt;" style="text;html=1;align=center;verticalAlign=middle;whiteSpace=wrap;rounded=0;" parent="1" vertex="1">
          <mxGeometry x="3080" y="950" width="171" height="30" as="geometry" />
        </mxCell>
        <mxCell id="ULj_5l2b-d4UT1FlwqZ8-10" value="&lt;span style=&quot;font-size: 20px;&quot;&gt;read and verify mailbox PDOs&lt;/span&gt;" style="text;html=1;align=center;verticalAlign=middle;whiteSpace=wrap;rounded=0;" parent="1" vertex="1">
          <mxGeometry x="2810" y="970" width="131" height="46" as="geometry" />
        </mxCell>
        <mxCell id="ULj_5l2b-d4UT1FlwqZ8-11" value="&lt;span style=&quot;color: rgb(0, 0, 0); font-family: Helvetica; font-size: 20px; font-style: normal; font-variant-ligatures: normal; font-variant-caps: normal; font-weight: 400; letter-spacing: normal; orphans: 2; text-align: center; text-indent: 0px; text-transform: none; widows: 2; word-spacing: 0px; -webkit-text-stroke-width: 0px; white-space: normal; text-decoration-thickness: initial; text-decoration-style: initial; text-decoration-color: initial; float: none; display: inline !important;&quot;&gt;EtherCAT master&lt;/span&gt;" style="text;whiteSpace=wrap;html=1;labelBackgroundColor=none;" parent="1" vertex="1">
          <mxGeometry x="2800" y="900" width="170" height="50" as="geometry" />
        </mxCell>
        <mxCell id="ULj_5l2b-d4UT1FlwqZ8-12" value="&lt;span style=&quot;color: rgb(0, 0, 0); font-family: Helvetica; font-size: 20px; font-style: normal; font-variant-ligatures: normal; font-variant-caps: normal; font-weight: 400; letter-spacing: normal; orphans: 2; text-align: center; text-indent: 0px; text-transform: none; widows: 2; word-spacing: 0px; -webkit-text-stroke-width: 0px; white-space: normal; text-decoration-thickness: initial; text-decoration-style: initial; text-decoration-color: initial; float: none; display: inline !important;&quot;&gt;firmware_poulpe&lt;/span&gt;" style="text;whiteSpace=wrap;html=1;labelBackgroundColor=none;" parent="1" vertex="1">
          <mxGeometry x="3380" y="895" width="170" height="50" as="geometry" />
        </mxCell>
        <mxCell id="ULj_5l2b-d4UT1FlwqZ8-13" value="&lt;font style=&quot;font-size: 20px;&quot;&gt;Send&lt;/font&gt;&lt;div&gt;&lt;font style=&quot;font-size: 20px;&quot;&gt;Mailbox PDOs&lt;/font&gt;&lt;/div&gt;" style="text;html=1;align=center;verticalAlign=middle;whiteSpace=wrap;rounded=0;" parent="1" vertex="1">
          <mxGeometry x="3409" y="970" width="101" height="41" as="geometry" />
        </mxCell>
        <mxCell id="ULj_5l2b-d4UT1FlwqZ8-14" value="&lt;font style=&quot;font-size: 20px;&quot;&gt;~10Hz&lt;/font&gt;" style="text;html=1;align=center;verticalAlign=middle;whiteSpace=wrap;rounded=0;" parent="1" vertex="1">
          <mxGeometry x="3308" y="940" width="171" height="30" as="geometry" />
        </mxCell>
        <mxCell id="ULj_5l2b-d4UT1FlwqZ8-15" value="" style="rounded=0;whiteSpace=wrap;html=1;fontSize=20;fillColor=#fff2cc;strokeColor=#d6b656;" parent="1" vertex="1">
          <mxGeometry x="2790" y="1255" width="180" height="175" as="geometry" />
        </mxCell>
        <mxCell id="ULj_5l2b-d4UT1FlwqZ8-16" value="" style="rounded=0;whiteSpace=wrap;html=1;" parent="1" vertex="1">
          <mxGeometry x="2790" y="1300" width="180" height="106" as="geometry" />
        </mxCell>
        <mxCell id="ULj_5l2b-d4UT1FlwqZ8-17" value="" style="rounded=0;whiteSpace=wrap;html=1;fontSize=20;fillColor=#fff2cc;strokeColor=#d6b656;" parent="1" vertex="1">
          <mxGeometry x="3370" y="1250" width="180" height="180" as="geometry" />
        </mxCell>
        <mxCell id="ULj_5l2b-d4UT1FlwqZ8-18" value="" style="rounded=0;whiteSpace=wrap;html=1;" parent="1" vertex="1">
          <mxGeometry x="3370" y="1294" width="180" height="106" as="geometry" />
        </mxCell>
        <mxCell id="ULj_5l2b-d4UT1FlwqZ8-19" value="" style="endArrow=classic;html=1;rounded=0;entryX=0.008;entryY=0.376;entryDx=0;entryDy=0;entryPerimeter=0;strokeWidth=2;" parent="1" target="ULj_5l2b-d4UT1FlwqZ8-17" edge="1">
          <mxGeometry width="50" height="50" relative="1" as="geometry">
            <mxPoint x="2970" y="1317" as="sourcePoint" />
            <mxPoint x="3020" y="1267" as="targetPoint" />
          </mxGeometry>
        </mxCell>
        <mxCell id="ULj_5l2b-d4UT1FlwqZ8-20" value="" style="endArrow=none;html=1;rounded=0;startArrow=classic;startFill=1;endFill=0;strokeWidth=2;" parent="1" edge="1">
          <mxGeometry width="50" height="50" relative="1" as="geometry">
            <mxPoint x="2970" y="1381" as="sourcePoint" />
            <mxPoint x="3370" y="1380" as="targetPoint" />
          </mxGeometry>
        </mxCell>
        <mxCell id="ULj_5l2b-d4UT1FlwqZ8-21" value="&lt;font style=&quot;font-size: 20px;&quot;&gt;controlword&lt;/font&gt;" style="text;html=1;align=center;verticalAlign=middle;whiteSpace=wrap;rounded=0;" parent="1" vertex="1">
          <mxGeometry x="3131" y="1280" width="60" height="30" as="geometry" />
        </mxCell>
        <mxCell id="ULj_5l2b-d4UT1FlwqZ8-22" value="&lt;font style=&quot;font-size: 20px;&quot;&gt;statusword&lt;/font&gt;" style="text;html=1;align=center;verticalAlign=middle;whiteSpace=wrap;rounded=0;" parent="1" vertex="1">
          <mxGeometry x="3129" y="1376" width="60" height="30" as="geometry" />
        </mxCell>
        <mxCell id="ULj_5l2b-d4UT1FlwqZ8-23" value="" style="endArrow=classic;html=1;rounded=0;dashed=1;strokeWidth=2;dashPattern=1 1;" parent="1" edge="1">
          <mxGeometry width="50" height="50" relative="1" as="geometry">
            <mxPoint x="3372" y="1317" as="sourcePoint" />
            <mxPoint x="3371" y="1380" as="targetPoint" />
            <Array as="points">
              <mxPoint x="3390" y="1317" />
              <mxPoint x="3390" y="1380" />
            </Array>
          </mxGeometry>
        </mxCell>
        <mxCell id="ULj_5l2b-d4UT1FlwqZ8-24" value="&lt;font style=&quot;font-size: 20px;&quot;&gt;watchdog counter&lt;/font&gt;" style="text;html=1;align=center;verticalAlign=middle;whiteSpace=wrap;rounded=0;" parent="1" vertex="1">
          <mxGeometry x="2839" y="1328" width="82" height="48" as="geometry" />
        </mxCell>
        <mxCell id="ULj_5l2b-d4UT1FlwqZ8-25" value="&lt;span style=&quot;color: rgb(0, 0, 0); font-family: Helvetica; font-size: 20px; font-style: normal; font-variant-ligatures: normal; font-variant-caps: normal; font-weight: 400; letter-spacing: normal; orphans: 2; text-align: center; text-indent: 0px; text-transform: none; widows: 2; word-spacing: 0px; -webkit-text-stroke-width: 0px; white-space: normal; text-decoration-thickness: initial; text-decoration-style: initial; text-decoration-color: initial; float: none; display: inline !important;&quot;&gt;EtherCAT master&lt;/span&gt;" style="text;whiteSpace=wrap;html=1;labelBackgroundColor=none;" parent="1" vertex="1">
          <mxGeometry x="2810" y="1260" width="170" height="50" as="geometry" />
        </mxCell>
        <mxCell id="ULj_5l2b-d4UT1FlwqZ8-26" value="&lt;span style=&quot;color: rgb(0, 0, 0); font-family: Helvetica; font-size: 20px; font-style: normal; font-variant-ligatures: normal; font-variant-caps: normal; font-weight: 400; letter-spacing: normal; orphans: 2; text-align: center; text-indent: 0px; text-transform: none; widows: 2; word-spacing: 0px; -webkit-text-stroke-width: 0px; white-space: normal; text-decoration-thickness: initial; text-decoration-style: initial; text-decoration-color: initial; float: none; display: inline !important;&quot;&gt;firmware_poulpe&lt;/span&gt;" style="text;whiteSpace=wrap;html=1;labelBackgroundColor=none;" parent="1" vertex="1">
          <mxGeometry x="3390" y="1255" width="170" height="50" as="geometry" />
        </mxCell>
        <mxCell id="ULj_5l2b-d4UT1FlwqZ8-27" value="&lt;font style=&quot;font-size: 20px;&quot;&gt;watchdog replay&lt;/font&gt;" style="text;html=1;align=center;verticalAlign=middle;whiteSpace=wrap;rounded=0;" parent="1" vertex="1">
          <mxGeometry x="3419" y="1323" width="82" height="48" as="geometry" />
        </mxCell>
        <mxCell id="ULj_5l2b-d4UT1FlwqZ8-28" value="&lt;font style=&quot;font-size: 20px;&quot;&gt;~1kHz&lt;/font&gt;" style="text;html=1;align=center;verticalAlign=middle;whiteSpace=wrap;rounded=0;" parent="1" vertex="1">
          <mxGeometry x="2850" y="1300" width="171" height="30" as="geometry" />
        </mxCell>
        <mxCell id="PhyX8Cl57GV2cvD0WpKQ-1" value="" style="rounded=0;whiteSpace=wrap;html=1;fontSize=20;fillColor=#fff2cc;strokeColor=#d6b656;" vertex="1" parent="1">
          <mxGeometry x="2776" y="1745" width="180" height="255" as="geometry" />
        </mxCell>
        <mxCell id="PhyX8Cl57GV2cvD0WpKQ-2" value="" style="rounded=0;whiteSpace=wrap;html=1;" vertex="1" parent="1">
          <mxGeometry x="2776" y="1790" width="180" height="80" as="geometry" />
        </mxCell>
        <mxCell id="PhyX8Cl57GV2cvD0WpKQ-3" value="" style="rounded=0;whiteSpace=wrap;html=1;fontSize=20;fillColor=#fff2cc;strokeColor=#d6b656;" vertex="1" parent="1">
          <mxGeometry x="3356" y="1740" width="180" height="260" as="geometry" />
        </mxCell>
        <mxCell id="PhyX8Cl57GV2cvD0WpKQ-4" value="" style="rounded=0;whiteSpace=wrap;html=1;" vertex="1" parent="1">
          <mxGeometry x="3356" y="1784" width="180" height="86" as="geometry" />
        </mxCell>
        <mxCell id="PhyX8Cl57GV2cvD0WpKQ-7" value="&lt;span style=&quot;font-size: 20px;&quot;&gt;read SDO&lt;/span&gt;" style="text;html=1;align=center;verticalAlign=middle;whiteSpace=wrap;rounded=0;" vertex="1" parent="1">
          <mxGeometry x="2800" y="1807" width="131" height="46" as="geometry" />
        </mxCell>
        <mxCell id="PhyX8Cl57GV2cvD0WpKQ-8" value="&lt;span style=&quot;color: rgb(0, 0, 0); font-family: Helvetica; font-size: 20px; font-style: normal; font-variant-ligatures: normal; font-variant-caps: normal; font-weight: 400; letter-spacing: normal; orphans: 2; text-align: center; text-indent: 0px; text-transform: none; widows: 2; word-spacing: 0px; -webkit-text-stroke-width: 0px; white-space: normal; text-decoration-thickness: initial; text-decoration-style: initial; text-decoration-color: initial; float: none; display: inline !important;&quot;&gt;EtherCAT master&lt;/span&gt;" style="text;whiteSpace=wrap;html=1;labelBackgroundColor=none;" vertex="1" parent="1">
          <mxGeometry x="2796" y="1750" width="170" height="50" as="geometry" />
        </mxCell>
        <mxCell id="PhyX8Cl57GV2cvD0WpKQ-9" value="&lt;span style=&quot;color: rgb(0, 0, 0); font-family: Helvetica; font-size: 20px; font-style: normal; font-variant-ligatures: normal; font-variant-caps: normal; font-weight: 400; letter-spacing: normal; orphans: 2; text-align: center; text-indent: 0px; text-transform: none; widows: 2; word-spacing: 0px; -webkit-text-stroke-width: 0px; white-space: normal; text-decoration-thickness: initial; text-decoration-style: initial; text-decoration-color: initial; float: none; display: inline !important;&quot;&gt;firmware_poulpe&lt;/span&gt;" style="text;whiteSpace=wrap;html=1;labelBackgroundColor=none;" vertex="1" parent="1">
          <mxGeometry x="3376" y="1745" width="170" height="50" as="geometry" />
        </mxCell>
        <mxCell id="PhyX8Cl57GV2cvD0WpKQ-10" value="&lt;span style=&quot;font-size: 20px;&quot;&gt;read SDO handling&lt;/span&gt;" style="text;html=1;align=center;verticalAlign=middle;whiteSpace=wrap;rounded=0;" vertex="1" parent="1">
          <mxGeometry x="3399.5" y="1807" width="101" height="41" as="geometry" />
        </mxCell>
        <mxCell id="PhyX8Cl57GV2cvD0WpKQ-12" value="" style="endArrow=classic;html=1;rounded=0;entryX=0.008;entryY=0.376;entryDx=0;entryDy=0;entryPerimeter=0;strokeWidth=2;" edge="1" parent="1">
          <mxGeometry width="50" height="50" relative="1" as="geometry">
            <mxPoint x="2956" y="1810" as="sourcePoint" />
            <mxPoint x="3357" y="1811" as="targetPoint" />
          </mxGeometry>
        </mxCell>
        <mxCell id="PhyX8Cl57GV2cvD0WpKQ-13" value="" style="endArrow=none;html=1;rounded=0;startArrow=classic;startFill=1;endFill=0;strokeWidth=2;" edge="1" parent="1">
          <mxGeometry width="50" height="50" relative="1" as="geometry">
            <mxPoint x="2955" y="1838" as="sourcePoint" />
            <mxPoint x="3355" y="1837" as="targetPoint" />
          </mxGeometry>
        </mxCell>
        <mxCell id="PhyX8Cl57GV2cvD0WpKQ-14" value="&lt;font style=&quot;font-size: 20px;&quot;&gt;read request&lt;br&gt;&lt;/font&gt;" style="text;html=1;align=center;verticalAlign=middle;whiteSpace=wrap;rounded=0;" vertex="1" parent="1">
          <mxGeometry x="3021" y="1770" width="280" height="30" as="geometry" />
        </mxCell>
        <mxCell id="PhyX8Cl57GV2cvD0WpKQ-15" value="&lt;font style=&quot;font-size: 20px;&quot;&gt;read response with data&lt;/font&gt;" style="text;html=1;align=center;verticalAlign=middle;whiteSpace=wrap;rounded=0;" vertex="1" parent="1">
          <mxGeometry x="3060.5" y="1840" width="220" height="30" as="geometry" />
        </mxCell>
        <mxCell id="PhyX8Cl57GV2cvD0WpKQ-18" value="&lt;span style=&quot;color: rgb(0, 0, 0); font-family: Helvetica; font-style: normal; font-variant-ligatures: normal; font-variant-caps: normal; font-weight: 400; letter-spacing: normal; orphans: 2; text-align: center; text-indent: 0px; text-transform: none; widows: 2; word-spacing: 0px; -webkit-text-stroke-width: 0px; white-space: normal; background-color: rgb(251, 251, 251); text-decoration-thickness: initial; text-decoration-style: initial; text-decoration-color: initial; float: none; display: inline !important;&quot;&gt;&lt;font style=&quot;font-size: 28px;&quot;&gt;Mailbox CoE protocol&lt;/font&gt;&lt;/span&gt;" style="text;whiteSpace=wrap;html=1;" vertex="1" parent="1">
          <mxGeometry x="3030" y="1710" width="319.5" height="50" as="geometry" />
        </mxCell>
        <mxCell id="PhyX8Cl57GV2cvD0WpKQ-19" value="" style="rounded=0;whiteSpace=wrap;html=1;" vertex="1" parent="1">
          <mxGeometry x="2776" y="1906" width="180" height="80" as="geometry" />
        </mxCell>
        <mxCell id="PhyX8Cl57GV2cvD0WpKQ-20" value="" style="rounded=0;whiteSpace=wrap;html=1;" vertex="1" parent="1">
          <mxGeometry x="3356" y="1900" width="180" height="86" as="geometry" />
        </mxCell>
        <mxCell id="PhyX8Cl57GV2cvD0WpKQ-21" value="&lt;span style=&quot;font-size: 20px;&quot;&gt;write SDO&lt;/span&gt;" style="text;html=1;align=center;verticalAlign=middle;whiteSpace=wrap;rounded=0;" vertex="1" parent="1">
          <mxGeometry x="2800" y="1923" width="131" height="46" as="geometry" />
        </mxCell>
        <mxCell id="PhyX8Cl57GV2cvD0WpKQ-22" value="&lt;span style=&quot;font-size: 20px;&quot;&gt;write SDO handling&lt;/span&gt;" style="text;html=1;align=center;verticalAlign=middle;whiteSpace=wrap;rounded=0;" vertex="1" parent="1">
          <mxGeometry x="3399.5" y="1923" width="101" height="41" as="geometry" />
        </mxCell>
        <mxCell id="PhyX8Cl57GV2cvD0WpKQ-23" value="" style="endArrow=classic;html=1;rounded=0;entryX=0.008;entryY=0.376;entryDx=0;entryDy=0;entryPerimeter=0;strokeWidth=2;" edge="1" parent="1">
          <mxGeometry width="50" height="50" relative="1" as="geometry">
            <mxPoint x="2956" y="1926" as="sourcePoint" />
            <mxPoint x="3357" y="1927" as="targetPoint" />
          </mxGeometry>
        </mxCell>
        <mxCell id="PhyX8Cl57GV2cvD0WpKQ-24" value="" style="endArrow=none;html=1;rounded=0;startArrow=classic;startFill=1;endFill=0;strokeWidth=2;" edge="1" parent="1">
          <mxGeometry width="50" height="50" relative="1" as="geometry">
            <mxPoint x="2955" y="1954" as="sourcePoint" />
            <mxPoint x="3355" y="1953" as="targetPoint" />
          </mxGeometry>
        </mxCell>
        <mxCell id="PhyX8Cl57GV2cvD0WpKQ-25" value="&lt;font style=&quot;font-size: 20px;&quot;&gt;write acknowledge&lt;/font&gt;" style="text;html=1;align=center;verticalAlign=middle;whiteSpace=wrap;rounded=0;" vertex="1" parent="1">
          <mxGeometry x="3060.5" y="1956" width="220" height="30" as="geometry" />
        </mxCell>
        <mxCell id="PhyX8Cl57GV2cvD0WpKQ-26" value="&lt;font style=&quot;font-size: 20px;&quot;&gt;write request&lt;br&gt;&lt;/font&gt;" style="text;html=1;align=center;verticalAlign=middle;whiteSpace=wrap;rounded=0;" vertex="1" parent="1">
          <mxGeometry x="3021" y="1890" width="280" height="30" as="geometry" />
        </mxCell>
        <mxCell id="PhyX8Cl57GV2cvD0WpKQ-27" value="" style="rounded=0;whiteSpace=wrap;html=1;fontSize=20;fillColor=#fff2cc;strokeColor=#d6b656;" vertex="1" parent="1">
          <mxGeometry x="2766" y="2245" width="180" height="555" as="geometry" />
        </mxCell>
        <mxCell id="PhyX8Cl57GV2cvD0WpKQ-28" value="" style="rounded=0;whiteSpace=wrap;html=1;" vertex="1" parent="1">
          <mxGeometry x="2766" y="2290" width="180" height="80" as="geometry" />
        </mxCell>
        <mxCell id="PhyX8Cl57GV2cvD0WpKQ-29" value="" style="rounded=0;whiteSpace=wrap;html=1;fontSize=20;fillColor=#fff2cc;strokeColor=#d6b656;" vertex="1" parent="1">
          <mxGeometry x="3346" y="2240" width="180" height="560" as="geometry" />
        </mxCell>
        <mxCell id="PhyX8Cl57GV2cvD0WpKQ-30" value="" style="rounded=0;whiteSpace=wrap;html=1;" vertex="1" parent="1">
          <mxGeometry x="3346" y="2284" width="180" height="86" as="geometry" />
        </mxCell>
        <mxCell id="PhyX8Cl57GV2cvD0WpKQ-31" value="&lt;span style=&quot;font-size: 20px;&quot;&gt;File upload request&lt;/span&gt;" style="text;html=1;align=center;verticalAlign=middle;whiteSpace=wrap;rounded=0;" vertex="1" parent="1">
          <mxGeometry x="2790" y="2307" width="131" height="46" as="geometry" />
        </mxCell>
        <mxCell id="PhyX8Cl57GV2cvD0WpKQ-32" value="&lt;span style=&quot;color: rgb(0, 0, 0); font-family: Helvetica; font-size: 20px; font-style: normal; font-variant-ligatures: normal; font-variant-caps: normal; font-weight: 400; letter-spacing: normal; orphans: 2; text-align: center; text-indent: 0px; text-transform: none; widows: 2; word-spacing: 0px; -webkit-text-stroke-width: 0px; white-space: normal; text-decoration-thickness: initial; text-decoration-style: initial; text-decoration-color: initial; float: none; display: inline !important;&quot;&gt;EtherCAT master&lt;/span&gt;" style="text;whiteSpace=wrap;html=1;labelBackgroundColor=none;" vertex="1" parent="1">
          <mxGeometry x="2786" y="2250" width="170" height="50" as="geometry" />
        </mxCell>
        <mxCell id="PhyX8Cl57GV2cvD0WpKQ-33" value="&lt;span style=&quot;color: rgb(0, 0, 0); font-family: Helvetica; font-size: 20px; font-style: normal; font-variant-ligatures: normal; font-variant-caps: normal; font-weight: 400; letter-spacing: normal; orphans: 2; text-align: center; text-indent: 0px; text-transform: none; widows: 2; word-spacing: 0px; -webkit-text-stroke-width: 0px; white-space: normal; text-decoration-thickness: initial; text-decoration-style: initial; text-decoration-color: initial; float: none; display: inline !important;&quot;&gt;firmware_poulpe&lt;/span&gt;" style="text;whiteSpace=wrap;html=1;labelBackgroundColor=none;" vertex="1" parent="1">
          <mxGeometry x="3366" y="2245" width="170" height="50" as="geometry" />
        </mxCell>
        <mxCell id="PhyX8Cl57GV2cvD0WpKQ-34" value="&lt;span style=&quot;font-size: 20px;&quot;&gt;FoE callback&lt;/span&gt;" style="text;html=1;align=center;verticalAlign=middle;whiteSpace=wrap;rounded=0;" vertex="1" parent="1">
          <mxGeometry x="3389.5" y="2307" width="101" height="41" as="geometry" />
        </mxCell>
        <mxCell id="PhyX8Cl57GV2cvD0WpKQ-35" value="" style="endArrow=classic;html=1;rounded=0;entryX=0.008;entryY=0.376;entryDx=0;entryDy=0;entryPerimeter=0;strokeWidth=2;" edge="1" parent="1">
          <mxGeometry width="50" height="50" relative="1" as="geometry">
            <mxPoint x="2946" y="2310" as="sourcePoint" />
            <mxPoint x="3347" y="2311" as="targetPoint" />
          </mxGeometry>
        </mxCell>
        <mxCell id="PhyX8Cl57GV2cvD0WpKQ-36" value="" style="endArrow=none;html=1;rounded=0;startArrow=classic;startFill=1;endFill=0;strokeWidth=2;" edge="1" parent="1">
          <mxGeometry width="50" height="50" relative="1" as="geometry">
            <mxPoint x="2945" y="2338" as="sourcePoint" />
            <mxPoint x="3345" y="2337" as="targetPoint" />
          </mxGeometry>
        </mxCell>
        <mxCell id="PhyX8Cl57GV2cvD0WpKQ-37" value="&lt;font style=&quot;font-size: 20px;&quot;&gt;write request&lt;br&gt;&lt;/font&gt;" style="text;html=1;align=center;verticalAlign=middle;whiteSpace=wrap;rounded=0;" vertex="1" parent="1">
          <mxGeometry x="3011" y="2270" width="280" height="30" as="geometry" />
        </mxCell>
        <mxCell id="PhyX8Cl57GV2cvD0WpKQ-39" value="&lt;span style=&quot;color: rgb(0, 0, 0); font-family: Helvetica; font-style: normal; font-variant-ligatures: normal; font-variant-caps: normal; font-weight: 400; letter-spacing: normal; orphans: 2; text-align: center; text-indent: 0px; text-transform: none; widows: 2; word-spacing: 0px; -webkit-text-stroke-width: 0px; white-space: normal; background-color: rgb(251, 251, 251); text-decoration-thickness: initial; text-decoration-style: initial; text-decoration-color: initial; float: none; display: inline !important;&quot;&gt;&lt;font style=&quot;font-size: 28px;&quot;&gt;Mailbox FoE protocol&lt;/font&gt;&lt;/span&gt;" style="text;whiteSpace=wrap;html=1;" vertex="1" parent="1">
          <mxGeometry x="3020" y="2210" width="319.5" height="50" as="geometry" />
        </mxCell>
        <mxCell id="PhyX8Cl57GV2cvD0WpKQ-40" value="" style="rounded=0;whiteSpace=wrap;html=1;" vertex="1" parent="1">
          <mxGeometry x="2766" y="2406" width="180" height="80" as="geometry" />
        </mxCell>
        <mxCell id="PhyX8Cl57GV2cvD0WpKQ-41" value="" style="rounded=0;whiteSpace=wrap;html=1;" vertex="1" parent="1">
          <mxGeometry x="3346" y="2400" width="180" height="86" as="geometry" />
        </mxCell>
        <mxCell id="PhyX8Cl57GV2cvD0WpKQ-42" value="&lt;span style=&quot;font-size: 20px;&quot;&gt;File chunk #1&lt;/span&gt;" style="text;html=1;align=center;verticalAlign=middle;whiteSpace=wrap;rounded=0;" vertex="1" parent="1">
          <mxGeometry x="2790" y="2423" width="131" height="46" as="geometry" />
        </mxCell>
        <mxCell id="PhyX8Cl57GV2cvD0WpKQ-44" value="" style="endArrow=classic;html=1;rounded=0;entryX=0.008;entryY=0.376;entryDx=0;entryDy=0;entryPerimeter=0;strokeWidth=2;" edge="1" parent="1">
          <mxGeometry width="50" height="50" relative="1" as="geometry">
            <mxPoint x="2946" y="2426" as="sourcePoint" />
            <mxPoint x="3347" y="2427" as="targetPoint" />
          </mxGeometry>
        </mxCell>
        <mxCell id="PhyX8Cl57GV2cvD0WpKQ-45" value="" style="endArrow=none;html=1;rounded=0;startArrow=classic;startFill=1;endFill=0;strokeWidth=2;" edge="1" parent="1">
          <mxGeometry width="50" height="50" relative="1" as="geometry">
            <mxPoint x="2945" y="2454" as="sourcePoint" />
            <mxPoint x="3345" y="2453" as="targetPoint" />
          </mxGeometry>
        </mxCell>
        <mxCell id="PhyX8Cl57GV2cvD0WpKQ-46" value="&lt;font style=&quot;font-size: 20px;&quot;&gt;acknowledge&lt;/font&gt;" style="text;html=1;align=center;verticalAlign=middle;whiteSpace=wrap;rounded=0;" vertex="1" parent="1">
          <mxGeometry x="3041" y="2338" width="220" height="30" as="geometry" />
        </mxCell>
        <mxCell id="PhyX8Cl57GV2cvD0WpKQ-47" value="&lt;font style=&quot;font-size: 20px;&quot;&gt;write data&lt;br&gt;&lt;/font&gt;" style="text;html=1;align=center;verticalAlign=middle;whiteSpace=wrap;rounded=0;" vertex="1" parent="1">
          <mxGeometry x="3011" y="2390" width="280" height="30" as="geometry" />
        </mxCell>
        <mxCell id="PhyX8Cl57GV2cvD0WpKQ-48" value="&lt;span style=&quot;font-size: 20px;&quot;&gt;FoE callback&lt;/span&gt;" style="text;html=1;align=center;verticalAlign=middle;whiteSpace=wrap;rounded=0;" vertex="1" parent="1">
          <mxGeometry x="3385.5" y="2423" width="101" height="41" as="geometry" />
        </mxCell>
        <mxCell id="PhyX8Cl57GV2cvD0WpKQ-49" value="" style="rounded=0;whiteSpace=wrap;html=1;" vertex="1" parent="1">
          <mxGeometry x="2766" y="2526" width="180" height="80" as="geometry" />
        </mxCell>
        <mxCell id="PhyX8Cl57GV2cvD0WpKQ-50" value="" style="rounded=0;whiteSpace=wrap;html=1;" vertex="1" parent="1">
          <mxGeometry x="3346" y="2520" width="180" height="86" as="geometry" />
        </mxCell>
        <mxCell id="PhyX8Cl57GV2cvD0WpKQ-51" value="&lt;span style=&quot;font-size: 20px;&quot;&gt;File chunk #2&lt;/span&gt;" style="text;html=1;align=center;verticalAlign=middle;whiteSpace=wrap;rounded=0;" vertex="1" parent="1">
          <mxGeometry x="2790" y="2543" width="131" height="46" as="geometry" />
        </mxCell>
        <mxCell id="PhyX8Cl57GV2cvD0WpKQ-52" value="" style="endArrow=classic;html=1;rounded=0;entryX=0.008;entryY=0.376;entryDx=0;entryDy=0;entryPerimeter=0;strokeWidth=2;" edge="1" parent="1">
          <mxGeometry width="50" height="50" relative="1" as="geometry">
            <mxPoint x="2946" y="2546" as="sourcePoint" />
            <mxPoint x="3347" y="2547" as="targetPoint" />
          </mxGeometry>
        </mxCell>
        <mxCell id="PhyX8Cl57GV2cvD0WpKQ-53" value="" style="endArrow=none;html=1;rounded=0;startArrow=classic;startFill=1;endFill=0;strokeWidth=2;" edge="1" parent="1">
          <mxGeometry width="50" height="50" relative="1" as="geometry">
            <mxPoint x="2945" y="2574" as="sourcePoint" />
            <mxPoint x="3345" y="2573" as="targetPoint" />
          </mxGeometry>
        </mxCell>
        <mxCell id="PhyX8Cl57GV2cvD0WpKQ-54" value="&lt;font style=&quot;font-size: 20px;&quot;&gt;write data&lt;br&gt;&lt;/font&gt;" style="text;html=1;align=center;verticalAlign=middle;whiteSpace=wrap;rounded=0;" vertex="1" parent="1">
          <mxGeometry x="3011" y="2510" width="280" height="30" as="geometry" />
        </mxCell>
        <mxCell id="PhyX8Cl57GV2cvD0WpKQ-55" value="&lt;span style=&quot;font-size: 20px;&quot;&gt;FoE callback&lt;/span&gt;" style="text;html=1;align=center;verticalAlign=middle;whiteSpace=wrap;rounded=0;" vertex="1" parent="1">
          <mxGeometry x="3385.5" y="2543" width="101" height="41" as="geometry" />
        </mxCell>
        <mxCell id="PhyX8Cl57GV2cvD0WpKQ-56" value="&lt;font style=&quot;font-size: 20px;&quot;&gt;acknowledge&lt;/font&gt;" style="text;html=1;align=center;verticalAlign=middle;whiteSpace=wrap;rounded=0;" vertex="1" parent="1">
          <mxGeometry x="3041" y="2450" width="220" height="30" as="geometry" />
        </mxCell>
        <mxCell id="PhyX8Cl57GV2cvD0WpKQ-58" value="&lt;font style=&quot;font-size: 20px;&quot;&gt;acknowledge&lt;/font&gt;" style="text;html=1;align=center;verticalAlign=middle;whiteSpace=wrap;rounded=0;" vertex="1" parent="1">
          <mxGeometry x="3041" y="2570" width="220" height="30" as="geometry" />
        </mxCell>
        <mxCell id="PhyX8Cl57GV2cvD0WpKQ-68" value="" style="rounded=0;whiteSpace=wrap;html=1;" vertex="1" parent="1">
          <mxGeometry x="2766" y="2706" width="180" height="80" as="geometry" />
        </mxCell>
        <mxCell id="PhyX8Cl57GV2cvD0WpKQ-69" value="" style="rounded=0;whiteSpace=wrap;html=1;" vertex="1" parent="1">
          <mxGeometry x="3346" y="2700" width="180" height="86" as="geometry" />
        </mxCell>
        <mxCell id="PhyX8Cl57GV2cvD0WpKQ-70" value="&lt;span style=&quot;font-size: 20px;&quot;&gt;File chunk #N&lt;/span&gt;" style="text;html=1;align=center;verticalAlign=middle;whiteSpace=wrap;rounded=0;" vertex="1" parent="1">
          <mxGeometry x="2790" y="2723" width="131" height="46" as="geometry" />
        </mxCell>
        <mxCell id="PhyX8Cl57GV2cvD0WpKQ-71" value="" style="endArrow=classic;html=1;rounded=0;entryX=0.008;entryY=0.376;entryDx=0;entryDy=0;entryPerimeter=0;strokeWidth=2;" edge="1" parent="1">
          <mxGeometry width="50" height="50" relative="1" as="geometry">
            <mxPoint x="2946" y="2726" as="sourcePoint" />
            <mxPoint x="3347" y="2727" as="targetPoint" />
          </mxGeometry>
        </mxCell>
        <mxCell id="PhyX8Cl57GV2cvD0WpKQ-72" value="" style="endArrow=none;html=1;rounded=0;startArrow=classic;startFill=1;endFill=0;strokeWidth=2;" edge="1" parent="1">
          <mxGeometry width="50" height="50" relative="1" as="geometry">
            <mxPoint x="2945" y="2754" as="sourcePoint" />
            <mxPoint x="3345" y="2753" as="targetPoint" />
          </mxGeometry>
        </mxCell>
        <mxCell id="PhyX8Cl57GV2cvD0WpKQ-73" value="&lt;font style=&quot;font-size: 20px;&quot;&gt;write data&lt;br&gt;&lt;/font&gt;" style="text;html=1;align=center;verticalAlign=middle;whiteSpace=wrap;rounded=0;" vertex="1" parent="1">
          <mxGeometry x="3011" y="2690" width="280" height="30" as="geometry" />
        </mxCell>
        <mxCell id="PhyX8Cl57GV2cvD0WpKQ-74" value="&lt;span style=&quot;font-size: 20px;&quot;&gt;FoE callback&lt;/span&gt;" style="text;html=1;align=center;verticalAlign=middle;whiteSpace=wrap;rounded=0;" vertex="1" parent="1">
          <mxGeometry x="3385.5" y="2723" width="101" height="41" as="geometry" />
        </mxCell>
        <mxCell id="PhyX8Cl57GV2cvD0WpKQ-75" value="&lt;font style=&quot;font-size: 20px;&quot;&gt;acknowledge&lt;/font&gt;" style="text;html=1;align=center;verticalAlign=middle;whiteSpace=wrap;rounded=0;" vertex="1" parent="1">
          <mxGeometry x="3041" y="2750" width="220" height="30" as="geometry" />
        </mxCell>
        <mxCell id="PhyX8Cl57GV2cvD0WpKQ-76" value="&lt;font style=&quot;font-size: 40px;&quot;&gt;.....&lt;/font&gt;" style="text;html=1;align=center;verticalAlign=middle;whiteSpace=wrap;rounded=0;" vertex="1" parent="1">
          <mxGeometry x="3121" y="2630" width="60" height="30" as="geometry" />
        </mxCell>
      </root>
    </mxGraphModel>
  </diagram>
</mxfile>
